<svg xmlns="http://www.w3.org/2000/svg" width="3000" height="2200" viewBox="0 0 3000 2200"><defs><filter id="shadow" x="-10%" y="-10%" width="120%" height="130%"><feDropShadow dx="0" dy="6" stdDeviation="10" flood-color="#10243B" flood-opacity="0.10"/></filter></defs><rect x="0" y="0" width="3000" height="2200" rx="0" fill="#E8EEF2"/><rect x="40" y="40" width="1400" height="860" rx="8" fill="#FFFFFF"/><rect x="40" y="40" width="1400" height="94" rx="8" fill="#10243B"/><rect x="40" y="126" width="1400" height="8" rx="0" fill="#0F9D8A"/><text x="82" y="99" font-family="Arial, sans-serif" font-size="20" fill="#FFFFFF" font-weight="700" text-anchor="start">N4WTT — S8 UI DESIGN</text><text x="1395" y="99" font-family="Arial, sans-serif" font-size="15" fill="#B9C6D2" font-weight="700" text-anchor="end">VERSION 1.0 · 22/06/2026</text><rect x="84" y="176" width="178" height="38" rx="6" fill="#DDF6F0"/><text x="173" y="201" font-family="Arial, sans-serif" font-size="14" fill="#087565" font-weight="700" text-anchor="middle">FIGMA-FIRST</text><rect x="276" y="176" width="196" height="38" rx="6" fill="#E7F0FF"/><text x="374" y="201" font-family="Arial, sans-serif" font-size="14" fill="#255FAD" font-weight="700" text-anchor="middle">ROLE-SPECIFIC</text><rect x="486" y="176" width="170" height="38" rx="6" fill="#FFF2D8"/><text x="571" y="201" font-family="Arial, sans-serif" font-size="14" fill="#8B5B00" font-weight="700" text-anchor="middle">VIETNAMESE</text><text x="84" y="286" font-family="Arial, sans-serif" font-size="52" fill="#10243B" font-weight="700" text-anchor="start">Web đề xuất thuốc thay thế</text><text x="84" y="344" font-family="Arial, sans-serif" font-size="52" fill="#10243B" font-weight="700" text-anchor="start">khi thuốc chính không có sẵn</text><text x="84" y="410" font-family="Arial, sans-serif" font-size="21" fill="#4A5B6B" font-weight="400" text-anchor="start">Thiết kế vận hành theo vai trò, ưu tiên an toàn và khả năng quét nhanh.</text><text x="84" y="444" font-family="Arial, sans-serif" font-size="21" fill="#4A5B6B" font-weight="400" text-anchor="start">AI chỉ giải thích kết quả xếp hạng; dược sĩ/chuyên gia giữ quyền quyết định.</text><rect x="84" y="520" width="390" height="144" rx="8" fill="#FFFFFF" stroke="#D8E1E8" stroke-width="1"/><rect x="84" y="520" width="6" height="144" rx="6" fill="#2675D8"/><text x="108" y="554" font-family="Arial, sans-serif" font-size="20" fill="#132238" font-weight="700" text-anchor="start">Public</text><text x="108" y="581" font-family="Arial, sans-serif" font-size="14" fill="#5E6C7B" font-weight="400" text-anchor="start">Tra cứu · Tồn kho · Cảnh báo</text><rect x="494" y="520" width="390" height="144" rx="8" fill="#FFFFFF" stroke="#D8E1E8" stroke-width="1"/><rect x="494" y="520" width="6" height="144" rx="6" fill="#7B61A8"/><text x="518" y="554" font-family="Arial, sans-serif" font-size="20" fill="#132238" font-weight="700" text-anchor="start">Người dùng</text><text x="518" y="581" font-family="Arial, sans-serif" font-size="14" fill="#5E6C7B" font-weight="400" text-anchor="start">Lưu lịch sử · Theo dõi đề xuất</text><rect x="904" y="520" width="450" height="144" rx="8" fill="#FFFFFF" stroke="#D8E1E8" stroke-width="1"/><rect x="904" y="520" width="6" height="144" rx="6" fill="#0F9D8A"/><text x="928" y="554" font-family="Arial, sans-serif" font-size="20" fill="#132238" font-weight="700" text-anchor="start">Dược sĩ</text><text x="928" y="581" font-family="Arial, sans-serif" font-size="14" fill="#5E6C7B" font-weight="400" text-anchor="start">So sánh · Xác nhận · Quản lý kho</text><rect x="84" y="690" width="595" height="112" rx="8" fill="#FFFFFF" stroke="#D8E1E8" stroke-width="1"/><rect x="84" y="690" width="6" height="112" rx="6" fill="#D98A00"/><text x="108" y="724" font-family="Arial, sans-serif" font-size="20" fill="#132238" font-weight="700" text-anchor="start">Chuyên gia y tế</text><text x="108" y="751" font-family="Arial, sans-serif" font-size="14" fill="#5E6C7B" font-weight="400" text-anchor="start">Đánh giá bằng chứng và audit trail</text><rect x="699" y="690" width="655" height="112" rx="8" fill="#FFFFFF" stroke="#D8E1E8" stroke-width="1"/><rect x="699" y="690" width="6" height="112" rx="6" fill="#C74848"/><text x="723" y="724" font-family="Arial, sans-serif" font-size="20" fill="#132238" font-weight="700" text-anchor="start">Quản trị viên</text><text x="723" y="751" font-family="Arial, sans-serif" font-size="14" fill="#5E6C7B" font-weight="400" text-anchor="start">Danh mục · Tài khoản · Nguồn · Sao lưu</text><text x="84" y="844" font-family="Arial, sans-serif" font-size="15" fill="#71808E" font-weight="400" text-anchor="start">Nguồn thiết kế: fu43wNGxTFRMghHrlH9lhI</text><text x="1354" y="844" font-family="Arial, sans-serif" font-size="15" fill="#71808E" font-weight="400" text-anchor="end">Owner: Nam · UX: Tú</text><rect x="1520" y="40" width="1440" height="860" rx="8" fill="#FFFFFF"/><text x="1570" y="99" font-family="Arial, sans-serif" font-size="24" fill="#10243B" font-weight="700" text-anchor="start">01 · KIẾN TRÚC AREA VÀ ĐIỀU HƯỚNG</text><line x1="1570" y1="126" x2="2910" y2="126" stroke="#D8E1E8" stroke-width="1"/><text x="1570" y="171" font-family="Arial, sans-serif" font-size="15" fill="#71808E" font-weight="700" text-anchor="start">Sau đăng nhập</text><rect x="1570" y="190" width="1340" height="88" rx="8" fill="#F4F7F9" stroke="#D8E1E8" stroke-width="1"/><text x="1600" y="225" font-family="Arial, sans-serif" font-size="18" fill="#132238" font-weight="700" text-anchor="start">POST /Auth/Login</text><text x="1600" y="254" font-family="Arial, sans-serif" font-size="15" fill="#5E6C7B" font-weight="400" text-anchor="start">Xác thực → lấy role → redirect server-side tới landing page đúng Area</text><rect x="2670" y="214" width="210" height="38" rx="6" fill="#FFE3E3"/><text x="2775" y="239" font-family="Arial, sans-serif" font-size="14" fill="#A42D2D" font-weight="700" text-anchor="middle">KHÔNG MENU TỔNG</text><rect x="1570" y="318" width="248" height="322" rx="8" fill="#FFFFFF" stroke="#D8E1E8" stroke-width="1"/><rect x="1570" y="318" width="248" height="56" rx="8" fill="#2675D8"/><text x="1586" y="354" font-family="Arial, sans-serif" font-size="16" fill="#FFFFFF" font-weight="700" text-anchor="start">PUBLIC</text><text x="1586" y="410" font-family="Arial, sans-serif" font-size="18" fill="#132238" font-weight="700" text-anchor="start">/</text><rect x="1586" y="438" width="216" height="42" rx="6" fill="#F4F7F9"/><text x="1600" y="465" font-family="Arial, sans-serif" font-size="14" fill="#3D4D5C" font-weight="600" text-anchor="start">Tra cứu thuốc</text><rect x="1586" y="493" width="216" height="42" rx="6" fill="#F4F7F9"/><text x="1600" y="520" font-family="Arial, sans-serif" font-size="14" fill="#3D4D5C" font-weight="600" text-anchor="start">Chi tiết thuốc</text><rect x="1586" y="548" width="216" height="42" rx="6" fill="#F4F7F9"/><text x="1600" y="575" font-family="Arial, sans-serif" font-size="14" fill="#3D4D5C" font-weight="600" text-anchor="start">Đăng nhập</text><rect x="1836" y="318" width="248" height="322" rx="8" fill="#FFFFFF" stroke="#D8E1E8" stroke-width="1"/><rect x="1836" y="318" width="248" height="56" rx="8" fill="#7B61A8"/><text x="1852" y="354" font-family="Arial, sans-serif" font-size="16" fill="#FFFFFF" font-weight="700" text-anchor="start">USER</text><text x="1852" y="410" font-family="Arial, sans-serif" font-size="18" fill="#132238" font-weight="700" text-anchor="start">/User</text><rect x="1852" y="438" width="216" height="42" rx="6" fill="#F4F7F9"/><text x="1866" y="465" font-family="Arial, sans-serif" font-size="14" fill="#3D4D5C" font-weight="600" text-anchor="start">Tổng quan cá nhân</text><rect x="1852" y="493" width="216" height="42" rx="6" fill="#F4F7F9"/><text x="1866" y="520" font-family="Arial, sans-serif" font-size="14" fill="#3D4D5C" font-weight="600" text-anchor="start">Lịch sử tra cứu</text><rect x="1852" y="548" width="216" height="42" rx="6" fill="#F4F7F9"/><text x="1866" y="575" font-family="Arial, sans-serif" font-size="14" fill="#3D4D5C" font-weight="600" text-anchor="start">Thuốc đã lưu</text><rect x="2102" y="318" width="248" height="322" rx="8" fill="#FFFFFF" stroke="#D8E1E8" stroke-width="1"/><rect x="2102" y="318" width="248" height="56" rx="8" fill="#0F9D8A"/><text x="2118" y="354" font-family="Arial, sans-serif" font-size="16" fill="#FFFFFF" font-weight="700" text-anchor="start">PHARMACIST</text><text x="2118" y="410" font-family="Arial, sans-serif" font-size="18" fill="#132238" font-weight="700" text-anchor="start">/Pharmacist</text><rect x="2118" y="438" width="216" height="42" rx="6" fill="#F4F7F9"/><text x="2132" y="465" font-family="Arial, sans-serif" font-size="14" fill="#3D4D5C" font-weight="600" text-anchor="start">Bàn tra cứu</text><rect x="2118" y="493" width="216" height="42" rx="6" fill="#F4F7F9"/><text x="2132" y="520" font-family="Arial, sans-serif" font-size="14" fill="#3D4D5C" font-weight="600" text-anchor="start">So sánh thay thế</text><rect x="2118" y="548" width="216" height="42" rx="6" fill="#F4F7F9"/><text x="2132" y="575" font-family="Arial, sans-serif" font-size="14" fill="#3D4D5C" font-weight="600" text-anchor="start">Tồn kho rủi ro</text><rect x="2368" y="318" width="248" height="322" rx="8" fill="#FFFFFF" stroke="#D8E1E8" stroke-width="1"/><rect x="2368" y="318" width="248" height="56" rx="8" fill="#D98A00"/><text x="2384" y="354" font-family="Arial, sans-serif" font-size="16" fill="#FFFFFF" font-weight="700" text-anchor="start">EXPERT</text><text x="2384" y="410" font-family="Arial, sans-serif" font-size="18" fill="#132238" font-weight="700" text-anchor="start">/Expert</text><rect x="2384" y="438" width="216" height="42" rx="6" fill="#F4F7F9"/><text x="2398" y="465" font-family="Arial, sans-serif" font-size="14" fill="#3D4D5C" font-weight="600" text-anchor="start">Hàng chờ đánh giá</text><rect x="2384" y="493" width="216" height="42" rx="6" fill="#F4F7F9"/><text x="2398" y="520" font-family="Arial, sans-serif" font-size="14" fill="#3D4D5C" font-weight="600" text-anchor="start">Bằng chứng</text><rect x="2384" y="548" width="216" height="42" rx="6" fill="#F4F7F9"/><text x="2398" y="575" font-family="Arial, sans-serif" font-size="14" fill="#3D4D5C" font-weight="600" text-anchor="start">Lịch sử quyết định</text><rect x="2634" y="318" width="276" height="322" rx="8" fill="#FFFFFF" stroke="#D8E1E8" stroke-width="1"/><rect x="2634" y="318" width="276" height="56" rx="8" fill="#C74848"/><text x="2650" y="354" font-family="Arial, sans-serif" font-size="16" fill="#FFFFFF" font-weight="700" text-anchor="start">ADMIN</text><text x="2650" y="410" font-family="Arial, sans-serif" font-size="18" fill="#132238" font-weight="700" text-anchor="start">/Admin</text><rect x="2650" y="438" width="244" height="42" rx="6" fill="#F4F7F9"/><text x="2664" y="465" font-family="Arial, sans-serif" font-size="14" fill="#3D4D5C" font-weight="600" text-anchor="start">Danh mục &amp; kho</text><rect x="2650" y="493" width="244" height="42" rx="6" fill="#F4F7F9"/><text x="2664" y="520" font-family="Arial, sans-serif" font-size="14" fill="#3D4D5C" font-weight="600" text-anchor="start">Người dùng &amp; vai trò</text><rect x="2650" y="548" width="244" height="42" rx="6" fill="#F4F7F9"/><text x="2664" y="575" font-family="Arial, sans-serif" font-size="14" fill="#3D4D5C" font-weight="600" text-anchor="start">Nguồn, log, backup</text><text x="1570" y="694" font-family="Arial, sans-serif" font-size="15" fill="#71808E" font-weight="700" text-anchor="start">Shared application/domain services</text><rect x="1570" y="712" width="1340" height="78" rx="8" fill="#10243B"/><text x="1600" y="746" font-family="Arial, sans-serif" font-size="17" fill="#FFFFFF" font-weight="700" text-anchor="start">Search · Recommendation · Inventory · Audit · Reporting · AI Explanation</text><text x="1600" y="773" font-family="Arial, sans-serif" font-size="14" fill="#B9C6D2" font-weight="400" text-anchor="start">Dùng chung nghiệp vụ; Area chỉ tách shell, route, navigation và tác vụ theo vai trò.</text><rect x="1570" y="816" width="1340" height="52" rx="6" fill="#FFF4DC" stroke="#E7B85C" stroke-width="1"/><text x="1592" y="849" font-family="Arial, sans-serif" font-size="15" fill="#795000" font-weight="700" text-anchor="start">Access Denied chỉ dành cho URL truy cập trái quyền, không phải luồng điều hướng bình thường.</text><rect x="40" y="960" width="2920" height="1200" rx="8" fill="#FFFFFF"/><text x="84" y="1020" font-family="Arial, sans-serif" font-size="24" fill="#10243B" font-weight="700" text-anchor="start">02 · FOUNDATIONS &amp; COMPONENT CONTRACT</text><text x="2860" y="1020" font-family="Arial, sans-serif" font-size="15" fill="#71808E" font-weight="700" text-anchor="end">Desktop 1440×900 · Mobile 390×844 · Touch ≥ 44 px</text><line x1="84" y1="1047" x2="2916" y2="1047" stroke="#D8E1E8" stroke-width="1"/><text x="84" y="1095" font-family="Arial, sans-serif" font-size="18" fill="#132238" font-weight="700" text-anchor="start">Semantic color</text><rect x="84" y="1120" width="164" height="86" rx="8" fill="#10243B"/><text x="96" y="1153" font-family="Arial, sans-serif" font-size="15" fill="#FFFFFF" font-weight="700" text-anchor="start">Navy</text><text x="96" y="1180" font-family="Arial, sans-serif" font-size="13" fill="#FFFFFF" font-weight="400" text-anchor="start">#10243B</text><rect x="272" y="1120" width="164" height="86" rx="8" fill="#0F9D8A"/><text x="284" y="1153" font-family="Arial, sans-serif" font-size="15" fill="#FFFFFF" font-weight="700" text-anchor="start">Teal</text><text x="284" y="1180" font-family="Arial, sans-serif" font-size="13" fill="#FFFFFF" font-weight="400" text-anchor="start">#0F9D8A</text><rect x="460" y="1120" width="164" height="86" rx="8" fill="#2675D8"/><text x="472" y="1153" font-family="Arial, sans-serif" font-size="15" fill="#FFFFFF" font-weight="700" text-anchor="start">Blue</text><text x="472" y="1180" font-family="Arial, sans-serif" font-size="13" fill="#FFFFFF" font-weight="400" text-anchor="start">#2675D8</text><rect x="648" y="1120" width="164" height="86" rx="8" fill="#2D8A57"/><text x="660" y="1153" font-family="Arial, sans-serif" font-size="15" fill="#FFFFFF" font-weight="700" text-anchor="start">Green</text><text x="660" y="1180" font-family="Arial, sans-serif" font-size="13" fill="#FFFFFF" font-weight="400" text-anchor="start">#2D8A57</text><rect x="836" y="1120" width="164" height="86" rx="8" fill="#D98A00"/><text x="848" y="1153" font-family="Arial, sans-serif" font-size="15" fill="#FFFFFF" font-weight="700" text-anchor="start">Amber</text><text x="848" y="1180" font-family="Arial, sans-serif" font-size="13" fill="#FFFFFF" font-weight="400" text-anchor="start">#D98A00</text><rect x="1024" y="1120" width="164" height="86" rx="8" fill="#C74848"/><text x="1036" y="1153" font-family="Arial, sans-serif" font-size="15" fill="#FFFFFF" font-weight="700" text-anchor="start">Red</text><text x="1036" y="1180" font-family="Arial, sans-serif" font-size="13" fill="#FFFFFF" font-weight="400" text-anchor="start">#C74848</text><rect x="1212" y="1120" width="164" height="86" rx="8" fill="#F4F7F9"/><text x="1224" y="1153" font-family="Arial, sans-serif" font-size="15" fill="#132238" font-weight="700" text-anchor="start">Canvas</text><text x="1224" y="1180" font-family="Arial, sans-serif" font-size="13" fill="#5E6C7B" font-weight="400" text-anchor="start">#F4F7F9</text><text x="1460" y="1095" font-family="Arial, sans-serif" font-size="18" fill="#132238" font-weight="700" text-anchor="start">Typography · Be Vietnam Pro / system fallback</text><text x="1460" y="1144" font-family="Arial, sans-serif" font-size="32" fill="#10243B" font-weight="700" text-anchor="start">Tiêu đề trang</text><text x="1460" y="1183" font-family="Arial, sans-serif" font-size="20" fill="#132238" font-weight="700" text-anchor="start">Tiêu đề khu vực · 20 px / 700</text><text x="1460" y="1216" font-family="Arial, sans-serif" font-size="16" fill="#4A5B6B" font-weight="400" text-anchor="start">Nội dung vận hành rõ ràng, tiếng Việt có dấu.</text><text x="1460" y="1245" font-family="Arial, sans-serif" font-size="14" fill="#71808E" font-weight="400" text-anchor="start">Chú thích / metadata · 14 px / 400</text><text x="84" y="1295" font-family="Arial, sans-serif" font-size="18" fill="#132238" font-weight="700" text-anchor="start">Buttons</text><rect x="84" y="1320" width="170" height="48" rx="6" fill="#0F9D8A"/><text x="169" y="1351" font-family="Arial, sans-serif" font-size="15" fill="#FFFFFF" font-weight="700" text-anchor="middle">Lưu thay đổi</text><rect x="270" y="1320" width="150" height="48" rx="6" fill="#FFFFFF" stroke="#0F9D8A" stroke-width="1"/><text x="345" y="1351" font-family="Arial, sans-serif" font-size="15" fill="#087565" font-weight="700" text-anchor="middle">Xem chi tiết</text><rect x="436" y="1320" width="122" height="48" rx="6" fill="#F4F7F9" stroke="#CBD6DF" stroke-width="1"/><text x="497" y="1351" font-family="Arial, sans-serif" font-size="15" fill="#3D4D5C" font-weight="700" text-anchor="middle">Hủy</text><rect x="574" y="1320" width="150" height="48" rx="6" fill="#DDE3E8"/><text x="649" y="1351" font-family="Arial, sans-serif" font-size="15" fill="#7B8995" font-weight="700" text-anchor="middle">Đang lưu…</text><text x="800" y="1295" font-family="Arial, sans-serif" font-size="18" fill="#132238" font-weight="700" text-anchor="start">Form fields</text><text x="800" y="1324" font-family="Arial, sans-serif" font-size="14" fill="#3D4D5C" font-weight="700" text-anchor="start">Tên thuốc hoặc hoạt chất</text><rect x="800" y="1338" width="420" height="48" rx="6" fill="#FFFFFF" stroke="#8FA0AE" stroke-width="1"/><text x="818" y="1369" font-family="Arial, sans-serif" font-size="15" fill="#8795A1" font-weight="400" text-anchor="start">Nhập từ khóa tra cứu</text><text x="800" y="1416" font-family="Arial, sans-serif" font-size="13" fill="#C74848" font-weight="700" text-anchor="start">Hạn sử dụng phải sau ngày nhập.</text><rect x="800" y="1430" width="420" height="48" rx="6" fill="#FFF8F8" stroke="#C74848" stroke-width="1"/><text x="1300" y="1295" font-family="Arial, sans-serif" font-size="18" fill="#132238" font-weight="700" text-anchor="start">Status badges</text><rect x="1300" y="1320" width="126" height="38" rx="6" fill="#DDF3E5"/><text x="1363" y="1345" font-family="Arial, sans-serif" font-size="14" fill="#216D45" font-weight="700" text-anchor="middle">Còn hàng</text><rect x="1438" y="1320" width="116" height="38" rx="6" fill="#FFE3E3"/><text x="1496" y="1345" font-family="Arial, sans-serif" font-size="14" fill="#A42D2D" font-weight="700" text-anchor="middle">Hết hàng</text><rect x="1566" y="1320" width="138" height="38" rx="6" fill="#FFF0D2"/><text x="1635" y="1345" font-family="Arial, sans-serif" font-size="14" fill="#805400" font-weight="700" text-anchor="middle">Sắp hết hàng</text><rect x="1716" y="1320" width="130" height="38" rx="6" fill="#E7F0FF"/><text x="1781" y="1345" font-family="Arial, sans-serif" font-size="14" fill="#255FAD" font-weight="700" text-anchor="middle">Thuốc kê đơn</text><rect x="1858" y="1320" width="160" height="38" rx="6" fill="#EEE8F7"/><text x="1938" y="1345" font-family="Arial, sans-serif" font-size="14" fill="#654B8A" font-weight="700" text-anchor="middle">Cần xem xét</text><text x="84" y="1538" font-family="Arial, sans-serif" font-size="18" fill="#132238" font-weight="700" text-anchor="start">Safety &amp; AI states</text><rect x="84" y="1563" width="430" height="118" rx="8" fill="#EDF4FF" stroke="#2675D8" stroke-width="1"/><rect x="84" y="1563" width="6" height="118" rx="6" fill="#2675D8"/><text x="108" y="1600" font-family="Arial, sans-serif" font-size="17" fill="#132238" font-weight="700" text-anchor="start">Giải thích từ AI</text><text x="108" y="1632" font-family="Arial, sans-serif" font-size="14" fill="#4A5B6B" font-weight="400" text-anchor="start">Tùy chọn; không đổi điểm phù hợp.</text><rect x="550" y="1563" width="430" height="118" rx="8" fill="#EDF4FF" stroke="#2675D8" stroke-width="1"/><rect x="550" y="1563" width="6" height="118" rx="6" fill="#2675D8"/><text x="574" y="1600" font-family="Arial, sans-serif" font-size="17" fill="#132238" font-weight="700" text-anchor="start">Đang phân tích…</text><text x="574" y="1632" font-family="Arial, sans-serif" font-size="14" fill="#4A5B6B" font-weight="400" text-anchor="start">Giữ nguyên dữ liệu theo bộ quy tắc.</text><rect x="1016" y="1563" width="430" height="118" rx="8" fill="#FFF7E8" stroke="#D98A00" stroke-width="1"/><rect x="1016" y="1563" width="6" height="118" rx="6" fill="#D98A00"/><text x="1040" y="1600" font-family="Arial, sans-serif" font-size="17" fill="#132238" font-weight="700" text-anchor="start">AI tạm không khả dụng</text><text x="1040" y="1632" font-family="Arial, sans-serif" font-size="14" fill="#4A5B6B" font-weight="400" text-anchor="start">Hiển thị deterministic fallback.</text><rect x="1482" y="1563" width="430" height="118" rx="8" fill="#FFF1F1" stroke="#C74848" stroke-width="1"/><rect x="1482" y="1563" width="6" height="118" rx="6" fill="#C74848"/><text x="1506" y="1600" font-family="Arial, sans-serif" font-size="17" fill="#132238" font-weight="700" text-anchor="start">Cảnh báo tương tác</text><text x="1506" y="1632" font-family="Arial, sans-serif" font-size="14" fill="#4A5B6B" font-weight="400" text-anchor="start">Mức cao · cần dược sĩ xác nhận.</text><rect x="1948" y="1563" width="430" height="118" rx="8" fill="#F3EFF8" stroke="#7B61A8" stroke-width="1"/><rect x="1948" y="1563" width="6" height="118" rx="6" fill="#7B61A8"/><text x="1972" y="1600" font-family="Arial, sans-serif" font-size="17" fill="#132238" font-weight="700" text-anchor="start">Phiên đã hết hạn</text><text x="1972" y="1632" font-family="Arial, sans-serif" font-size="14" fill="#4A5B6B" font-weight="400" text-anchor="start">Đăng nhập lại; giữ return URL an toàn.</text><rect x="2414" y="1563" width="430" height="118" rx="8" fill="#F4F7F9" stroke="#5E6C7B" stroke-width="1"/><rect x="2414" y="1563" width="6" height="118" rx="6" fill="#5E6C7B"/><text x="2438" y="1600" font-family="Arial, sans-serif" font-size="17" fill="#132238" font-weight="700" text-anchor="start">Không có dữ liệu</text><text x="2438" y="1632" font-family="Arial, sans-serif" font-size="14" fill="#4A5B6B" font-weight="400" text-anchor="start">Nêu nguyên nhân và hành động tiếp theo.</text><text x="84" y="1740" font-family="Arial, sans-serif" font-size="18" fill="#132238" font-weight="700" text-anchor="start">Role-specific shell variants</text><rect x="84" y="1765" width="520" height="164" rx="8" fill="#10243B"/><text x="108" y="1801" font-family="Arial, sans-serif" font-size="15" fill="#FFFFFF" font-weight="700" text-anchor="start">USER</text><rect x="104" y="1821" width="480" height="28" rx="5" fill="#7B61A8"/><text x="118" y="1841" font-family="Arial, sans-serif" font-size="13" fill="#FFFFFF" font-weight="600" text-anchor="start">Tổng quan</text><rect x="104" y="1855" width="480" height="28" rx="5" fill="#1A334C"/><text x="118" y="1875" font-family="Arial, sans-serif" font-size="13" fill="#FFFFFF" font-weight="600" text-anchor="start">Lịch sử</text><rect x="104" y="1889" width="480" height="28" rx="5" fill="#1A334C"/><text x="118" y="1909" font-family="Arial, sans-serif" font-size="13" fill="#FFFFFF" font-weight="600" text-anchor="start">Đã lưu</text><rect x="640" y="1765" width="520" height="164" rx="8" fill="#10243B"/><text x="664" y="1801" font-family="Arial, sans-serif" font-size="15" fill="#FFFFFF" font-weight="700" text-anchor="start">PHARMACIST</text><rect x="660" y="1821" width="480" height="28" rx="5" fill="#0F9D8A"/><text x="674" y="1841" font-family="Arial, sans-serif" font-size="13" fill="#FFFFFF" font-weight="600" text-anchor="start">Bàn tra cứu</text><rect x="660" y="1855" width="480" height="28" rx="5" fill="#1A334C"/><text x="674" y="1875" font-family="Arial, sans-serif" font-size="13" fill="#FFFFFF" font-weight="600" text-anchor="start">Thay thế</text><rect x="660" y="1889" width="480" height="28" rx="5" fill="#1A334C"/><text x="674" y="1909" font-family="Arial, sans-serif" font-size="13" fill="#FFFFFF" font-weight="600" text-anchor="start">Kho rủi ro</text><rect x="1196" y="1765" width="520" height="164" rx="8" fill="#10243B"/><text x="1220" y="1801" font-family="Arial, sans-serif" font-size="15" fill="#FFFFFF" font-weight="700" text-anchor="start">EXPERT</text><rect x="1216" y="1821" width="480" height="28" rx="5" fill="#D98A00"/><text x="1230" y="1841" font-family="Arial, sans-serif" font-size="13" fill="#FFFFFF" font-weight="600" text-anchor="start">Chờ đánh giá</text><rect x="1216" y="1855" width="480" height="28" rx="5" fill="#1A334C"/><text x="1230" y="1875" font-family="Arial, sans-serif" font-size="13" fill="#FFFFFF" font-weight="600" text-anchor="start">Bằng chứng</text><rect x="1216" y="1889" width="480" height="28" rx="5" fill="#1A334C"/><text x="1230" y="1909" font-family="Arial, sans-serif" font-size="13" fill="#FFFFFF" font-weight="600" text-anchor="start">Quyết định</text><rect x="1752" y="1765" width="520" height="164" rx="8" fill="#10243B"/><text x="1776" y="1801" font-family="Arial, sans-serif" font-size="15" fill="#FFFFFF" font-weight="700" text-anchor="start">ADMIN</text><rect x="1772" y="1821" width="480" height="28" rx="5" fill="#C74848"/><text x="1786" y="1841" font-family="Arial, sans-serif" font-size="13" fill="#FFFFFF" font-weight="600" text-anchor="start">Danh mục</text><rect x="1772" y="1855" width="480" height="28" rx="5" fill="#1A334C"/><text x="1786" y="1875" font-family="Arial, sans-serif" font-size="13" fill="#FFFFFF" font-weight="600" text-anchor="start">Tài khoản</text><rect x="1772" y="1889" width="480" height="28" rx="5" fill="#1A334C"/><text x="1786" y="1909" font-family="Arial, sans-serif" font-size="13" fill="#FFFFFF" font-weight="600" text-anchor="start">Vận hành</text><rect x="2328" y="1765" width="532" height="164" rx="8" fill="#FFF4DC" stroke="#E7B85C" stroke-width="1"/><text x="2352" y="1802" font-family="Arial, sans-serif" font-size="17" fill="#795000" font-weight="700" text-anchor="start">Login policy</text><text x="2352" y="1835" font-family="Arial, sans-serif" font-size="14" fill="#5E4A20" font-weight="600" text-anchor="start">Không hiển thị email/mật khẩu mẫu.</text><text x="2352" y="1864" font-family="Arial, sans-serif" font-size="14" fill="#5E4A20" font-weight="600" text-anchor="start">Lỗi không tiết lộ tài khoản hoặc vai trò.</text><text x="2352" y="1893" font-family="Arial, sans-serif" font-size="14" fill="#5E4A20" font-weight="600" text-anchor="start">Redirect thẳng tới Area theo role.</text><text x="84" y="1990" font-family="Arial, sans-serif" font-size="18" fill="#132238" font-weight="700" text-anchor="start">Spacing &amp; accessibility</text><rect x="84" y="2015" width="2776" height="88" rx="8" fill="#F4F7F9"/><text x="112" y="2048" font-family="Arial, sans-serif" font-size="15" fill="#3D4D5C" font-weight="600" text-anchor="start">Grid 8 px · Radius 6–8 px · Focus ring 2 px · Contrast ≥ 4.5:1 · Touch target ≥ 44 px</text><text x="112" y="2076" font-family="Arial, sans-serif" font-size="15" fill="#3D4D5C" font-weight="600" text-anchor="start">Không dùng màu đơn độc cho trạng thái · Icon-only có accessible name · Không horizontal overflow ở 390 px</text></svg>