<svg xmlns="http://www.w3.org/2000/svg" width="3000" height="2180" viewBox="0 0 3000 2180"><rect x="0" y="0" width="3000" height="2180" rx="0" fill="#E8EEF2"/><text x="40" y="50" font-family="Arial, sans-serif" font-size="24" fill="#10243B" font-weight="700" text-anchor="start">03 · MOBILE ROLE AREAS · 390 × 844</text><text x="2960" y="50" font-family="Arial, sans-serif" font-size="14" fill="#71808E" font-weight="600" text-anchor="end">Touch target ≥ 44 px · Không horizontal overflow</text><text x="40" y="84" font-family="Arial, sans-serif" font-size="16" fill="#10243B" font-weight="700" text-anchor="start">M01 · Public search</text><rect x="40" y="100" width="390" height="844" rx="28" fill="#FFFFFF" stroke="#AAB8C4" stroke-width="3"/><rect x="50" y="110" width="370" height="824" rx="20" fill="#F4F7F9"/><text x="68" y="135" font-family="Arial, sans-serif" font-size="11" fill="#3D4D5C" font-weight="700" text-anchor="start">09:41</text><text x="384" y="135" font-family="Arial, sans-serif" font-size="10" fill="#3D4D5C" font-weight="700" text-anchor="end">● 5G</text><rect x="50" y="152" width="370" height="64" rx="0" fill="#10243B"/><text x="68" y="179" font-family="Arial, sans-serif" font-size="14" fill="#FFFFFF" font-weight="700" text-anchor="start">PHARMASSIST</text><rect x="280" y="166" width="120" height="28" rx="5" fill="#2675D8"/><text x="340" y="185" font-family="Arial, sans-serif" font-size="11" fill="#FFFFFF" font-weight="700" text-anchor="middle">PUBLIC</text><rect x="50" y="866" width="370" height="68" rx="0" fill="#FFFFFF"/><line x1="50" y1="866" x2="420" y2="866" stroke="#D8E1E8" stroke-width="1"/><rect x="70" y="880" width="32" height="28" rx="6" fill="#2675D8"/><text x="86" y="900" font-family="Arial, sans-serif" font-size="11" fill="#FFFFFF" font-weight="700" text-anchor="middle">1</text><text x="86" y="922" font-family="Arial, sans-serif" font-size="10" fill="#132238" font-weight="700" text-anchor="middle">Tra cứu</text><rect x="220" y="880" width="32" height="28" rx="6" fill="#EAF0F4"/><text x="236" y="900" font-family="Arial, sans-serif" font-size="11" fill="#71808E" font-weight="700" text-anchor="middle">2</text><text x="236" y="922" font-family="Arial, sans-serif" font-size="10" fill="#71808E" font-weight="500" text-anchor="middle">An toàn</text><rect x="370" y="880" width="32" height="28" rx="6" fill="#EAF0F4"/><text x="386" y="900" font-family="Arial, sans-serif" font-size="11" fill="#71808E" font-weight="700" text-anchor="middle">3</text><text x="386" y="922" font-family="Arial, sans-serif" font-size="10" fill="#71808E" font-weight="500" text-anchor="middle">Đăng nhập</text><text x="68" y="236" font-family="Arial, sans-serif" font-size="24" fill="#10243B" font-weight="700" text-anchor="start">Tra cứu thuốc</text><text x="68" y="264" font-family="Arial, sans-serif" font-size="12" fill="#71808E" font-weight="400" text-anchor="start">Kiểm tra tồn kho và cảnh báo</text><rect x="68" y="288" width="334" height="48" rx="7" fill="#FFFFFF" stroke="#8FA0AE" stroke-width="1"/><text x="82" y="318" font-family="Arial, sans-serif" font-size="13" fill="#3D4D5C" font-weight="400" text-anchor="start">Panadol 500mg</text><rect x="68" y="348" width="334" height="46" rx="7" fill="#2675D8"/><text x="235" y="378" font-family="Arial, sans-serif" font-size="13" fill="#FFFFFF" font-weight="700" text-anchor="middle">Tra cứu</text><text x="68" y="434" font-family="Arial, sans-serif" font-size="15" fill="#132238" font-weight="700" text-anchor="start">Kết quả</text><rect x="68" y="452" width="334" height="86" rx="8" fill="#FFFFFF" stroke="#C74848" stroke-width="1"/><text x="82" y="478" font-family="Arial, sans-serif" font-size="14" fill="#132238" font-weight="700" text-anchor="start">Panadol 500mg</text><text x="82" y="501" font-family="Arial, sans-serif" font-size="11" fill="#71808E" font-weight="400" text-anchor="start">Hết hàng · 2.500 ₫</text><rect x="286" y="466" width="100" height="28" rx="5" fill="#FFE3E3"/><text x="336" y="485" font-family="Arial, sans-serif" font-size="11" fill="#A42D2D" font-weight="700" text-anchor="middle">HẾT HÀNG</text><rect x="68" y="550" width="334" height="104" rx="8" fill="#FFFFFF" stroke="#2D8A57" stroke-width="1"/><text x="82" y="576" font-family="Arial, sans-serif" font-size="14" fill="#132238" font-weight="700" text-anchor="start">Paracetamol DHG 500mg</text><text x="82" y="599" font-family="Arial, sans-serif" font-size="11" fill="#71808E" font-weight="400" text-anchor="start">Còn 120 viên · 1.500 ₫</text><rect x="286" y="564" width="96" height="28" rx="5" fill="#DDF3E5"/><text x="334" y="583" font-family="Arial, sans-serif" font-size="11" fill="#216D45" font-weight="700" text-anchor="middle">94 / 100</text><rect x="68" y="670" width="334" height="96" rx="8" fill="#FFF4DC" stroke="#E7B85C" stroke-width="1"/><text x="82" y="698" font-family="Arial, sans-serif" font-size="13" fill="#795000" font-weight="700" text-anchor="start">Lưu ý an toàn</text><text x="82" y="722" font-family="Arial, sans-serif" font-size="11" fill="#5E4A20" font-weight="400" text-anchor="start">Hỏi dược sĩ hoặc bác sĩ trước</text><text x="82" y="740" font-family="Arial, sans-serif" font-size="11" fill="#5E4A20" font-weight="400" text-anchor="start">khi thay đổi thuốc.</text><text x="470" y="84" font-family="Arial, sans-serif" font-size="16" fill="#10243B" font-weight="700" text-anchor="start">M02 · User home</text><rect x="470" y="100" width="390" height="844" rx="28" fill="#FFFFFF" stroke="#AAB8C4" stroke-width="3"/><rect x="480" y="110" width="370" height="824" rx="20" fill="#F4F7F9"/><text x="498" y="135" font-family="Arial, sans-serif" font-size="11" fill="#3D4D5C" font-weight="700" text-anchor="start">09:41</text><text x="814" y="135" font-family="Arial, sans-serif" font-size="10" fill="#3D4D5C" font-weight="700" text-anchor="end">● 5G</text><rect x="480" y="152" width="370" height="64" rx="0" fill="#10243B"/><text x="498" y="179" font-family="Arial, sans-serif" font-size="14" fill="#FFFFFF" font-weight="700" text-anchor="start">PHARMASSIST</text><rect x="710" y="166" width="120" height="28" rx="5" fill="#7B61A8"/><text x="770" y="185" font-family="Arial, sans-serif" font-size="11" fill="#FFFFFF" font-weight="700" text-anchor="middle">USER</text><rect x="480" y="866" width="370" height="68" rx="0" fill="#FFFFFF"/><line x1="480" y1="866" x2="850" y2="866" stroke="#D8E1E8" stroke-width="1"/><rect x="500" y="880" width="32" height="28" rx="6" fill="#7B61A8"/><text x="516" y="900" font-family="Arial, sans-serif" font-size="11" fill="#FFFFFF" font-weight="700" text-anchor="middle">1</text><text x="516" y="922" font-family="Arial, sans-serif" font-size="10" fill="#132238" font-weight="700" text-anchor="middle">Tổng quan</text><rect x="650" y="880" width="32" height="28" rx="6" fill="#EAF0F4"/><text x="666" y="900" font-family="Arial, sans-serif" font-size="11" fill="#71808E" font-weight="700" text-anchor="middle">2</text><text x="666" y="922" font-family="Arial, sans-serif" font-size="10" fill="#71808E" font-weight="500" text-anchor="middle">Lịch sử</text><rect x="800" y="880" width="32" height="28" rx="6" fill="#EAF0F4"/><text x="816" y="900" font-family="Arial, sans-serif" font-size="11" fill="#71808E" font-weight="700" text-anchor="middle">3</text><text x="816" y="922" font-family="Arial, sans-serif" font-size="10" fill="#71808E" font-weight="500" text-anchor="middle">Đã lưu</text><text x="498" y="236" font-family="Arial, sans-serif" font-size="22" fill="#10243B" font-weight="700" text-anchor="start">Chào Nguyễn An</text><text x="498" y="264" font-family="Arial, sans-serif" font-size="12" fill="#71808E" font-weight="400" text-anchor="start">Không gian cá nhân của bạn</text><rect x="498" y="294" width="156" height="92" rx="8" fill="#FFFFFF" stroke="#7B61A8" stroke-width="1"/><text x="512" y="320" font-family="Arial, sans-serif" font-size="14" fill="#132238" font-weight="700" text-anchor="start">18 lượt</text><text x="512" y="343" font-family="Arial, sans-serif" font-size="11" fill="#71808E" font-weight="400" text-anchor="start">Tra cứu · 30 ngày</text><rect x="676" y="294" width="156" height="92" rx="8" fill="#FFFFFF" stroke="#2675D8" stroke-width="1"/><text x="690" y="320" font-family="Arial, sans-serif" font-size="14" fill="#132238" font-weight="700" text-anchor="start">6 thuốc</text><text x="690" y="343" font-family="Arial, sans-serif" font-size="11" fill="#71808E" font-weight="400" text-anchor="start">Đã lưu</text><text x="498" y="426" font-family="Arial, sans-serif" font-size="15" fill="#132238" font-weight="700" text-anchor="start">Tra cứu gần đây</text><rect x="498" y="444" width="334" height="78" rx="8" fill="#FFFFFF" stroke="#C74848" stroke-width="1"/><text x="512" y="470" font-family="Arial, sans-serif" font-size="14" fill="#132238" font-weight="700" text-anchor="start">Panadol 500mg</text><text x="512" y="493" font-family="Arial, sans-serif" font-size="11" fill="#71808E" font-weight="400" text-anchor="start">22/06 · Hết hàng</text><rect x="498" y="534" width="334" height="78" rx="8" fill="#FFFFFF" stroke="#2D8A57" stroke-width="1"/><text x="512" y="560" font-family="Arial, sans-serif" font-size="14" fill="#132238" font-weight="700" text-anchor="start">Cetirizine 10mg</text><text x="512" y="583" font-family="Arial, sans-serif" font-size="11" fill="#71808E" font-weight="400" text-anchor="start">20/06 · Còn hàng</text><rect x="498" y="634" width="334" height="106" rx="8" fill="#FFF4DC" stroke="#E7B85C" stroke-width="1"/><text x="512" y="663" font-family="Arial, sans-serif" font-size="13" fill="#795000" font-weight="700" text-anchor="start">Tồn kho đã thay đổi</text><text x="512" y="688" font-family="Arial, sans-serif" font-size="11" fill="#5E4A20" font-weight="400" text-anchor="start">2 thuốc đã lưu cần tra cứu lại</text><rect x="512" y="704" width="160" height="30" rx="5" fill="#FFFFFF" stroke="#D98A00" stroke-width="1"/><text x="592" y="725" font-family="Arial, sans-serif" font-size="11" fill="#805400" font-weight="700" text-anchor="middle">Xem thay đổi</text><text x="900" y="84" font-family="Arial, sans-serif" font-size="16" fill="#10243B" font-weight="700" text-anchor="start">M03 · Pharmacist</text><rect x="900" y="100" width="390" height="844" rx="28" fill="#FFFFFF" stroke="#AAB8C4" stroke-width="3"/><rect x="910" y="110" width="370" height="824" rx="20" fill="#F4F7F9"/><text x="928" y="135" font-family="Arial, sans-serif" font-size="11" fill="#3D4D5C" font-weight="700" text-anchor="start">09:41</text><text x="1244" y="135" font-family="Arial, sans-serif" font-size="10" fill="#3D4D5C" font-weight="700" text-anchor="end">● 5G</text><rect x="910" y="152" width="370" height="64" rx="0" fill="#10243B"/><text x="928" y="179" font-family="Arial, sans-serif" font-size="14" fill="#FFFFFF" font-weight="700" text-anchor="start">PHARMASSIST</text><rect x="1140" y="166" width="120" height="28" rx="5" fill="#0F9D8A"/><text x="1200" y="185" font-family="Arial, sans-serif" font-size="11" fill="#FFFFFF" font-weight="700" text-anchor="middle">DƯỢC SĨ</text><rect x="910" y="866" width="370" height="68" rx="0" fill="#FFFFFF"/><line x1="910" y1="866" x2="1280" y2="866" stroke="#D8E1E8" stroke-width="1"/><rect x="930" y="880" width="32" height="28" rx="6" fill="#0F9D8A"/><text x="946" y="900" font-family="Arial, sans-serif" font-size="11" fill="#FFFFFF" font-weight="700" text-anchor="middle">1</text><text x="946" y="922" font-family="Arial, sans-serif" font-size="10" fill="#132238" font-weight="700" text-anchor="middle">Tra cứu</text><rect x="1080" y="880" width="32" height="28" rx="6" fill="#EAF0F4"/><text x="1096" y="900" font-family="Arial, sans-serif" font-size="11" fill="#71808E" font-weight="700" text-anchor="middle">2</text><text x="1096" y="922" font-family="Arial, sans-serif" font-size="10" fill="#71808E" font-weight="500" text-anchor="middle">Thay thế</text><rect x="1230" y="880" width="32" height="28" rx="6" fill="#EAF0F4"/><text x="1246" y="900" font-family="Arial, sans-serif" font-size="11" fill="#71808E" font-weight="700" text-anchor="middle">3</text><text x="1246" y="922" font-family="Arial, sans-serif" font-size="10" fill="#71808E" font-weight="500" text-anchor="middle">Kho</text><text x="928" y="236" font-family="Arial, sans-serif" font-size="22" fill="#10243B" font-weight="700" text-anchor="start">Bàn tra cứu</text><text x="928" y="264" font-family="Arial, sans-serif" font-size="12" fill="#71808E" font-weight="400" text-anchor="start">Phục vụ tư vấn tại quầy</text><rect x="928" y="288" width="334" height="48" rx="7" fill="#FFFFFF" stroke="#8FA0AE" stroke-width="1"/><text x="942" y="318" font-family="Arial, sans-serif" font-size="13" fill="#3D4D5C" font-weight="400" text-anchor="start">Panadol 500mg</text><rect x="928" y="350" width="334" height="94" rx="8" fill="#FFF1F1" stroke="#C74848" stroke-width="1"/><text x="942" y="380" font-family="Arial, sans-serif" font-size="14" fill="#132238" font-weight="700" text-anchor="start">Panadol 500mg</text><rect x="1148" y="364" width="96" height="28" rx="5" fill="#FFE3E3"/><text x="1196" y="383" font-family="Arial, sans-serif" font-size="11" fill="#A42D2D" font-weight="700" text-anchor="middle">HẾT HÀNG</text><text x="942" y="408" font-family="Arial, sans-serif" font-size="11" fill="#4A5B6B" font-weight="400" text-anchor="start">Paracetamol · 500 mg</text><text x="942" y="426" font-family="Arial, sans-serif" font-size="11" fill="#A42D2D" font-weight="700" text-anchor="start">Kho A · 0 viên</text><text x="928" y="482" font-family="Arial, sans-serif" font-size="15" fill="#132238" font-weight="700" text-anchor="start">Đề xuất phù hợp</text><rect x="928" y="500" width="334" height="96" rx="8" fill="#FFFFFF" stroke="#2D8A57" stroke-width="1"/><text x="942" y="526" font-family="Arial, sans-serif" font-size="14" fill="#132238" font-weight="700" text-anchor="start">Paracetamol DHG</text><text x="942" y="549" font-family="Arial, sans-serif" font-size="11" fill="#71808E" font-weight="400" text-anchor="start">94 điểm · 120 viên</text><rect x="1152" y="514" width="86" height="28" rx="5" fill="#DDF3E5"/><text x="1195" y="533" font-family="Arial, sans-serif" font-size="11" fill="#216D45" font-weight="700" text-anchor="middle">AN TOÀN</text><rect x="928" y="608" width="334" height="96" rx="8" fill="#FFFFFF" stroke="#D98A00" stroke-width="1"/><text x="942" y="634" font-family="Arial, sans-serif" font-size="14" fill="#132238" font-weight="700" text-anchor="start">Hapacol 500mg</text><text x="942" y="657" font-family="Arial, sans-serif" font-size="11" fill="#71808E" font-weight="400" text-anchor="start">91 điểm · 76 viên</text><rect x="1152" y="622" width="86" height="28" rx="5" fill="#FFF0D2"/><text x="1195" y="641" font-family="Arial, sans-serif" font-size="11" fill="#805400" font-weight="700" text-anchor="middle">THẤP</text><rect x="928" y="726" width="334" height="44" rx="6" fill="#0F9D8A"/><text x="1095" y="754" font-family="Arial, sans-serif" font-size="12" fill="#FFFFFF" font-weight="700" text-anchor="middle">Mở phiếu xác nhận</text><text x="1330" y="84" font-family="Arial, sans-serif" font-size="16" fill="#10243B" font-weight="700" text-anchor="start">M04 · Expert review</text><rect x="1330" y="100" width="390" height="844" rx="28" fill="#FFFFFF" stroke="#AAB8C4" stroke-width="3"/><rect x="1340" y="110" width="370" height="824" rx="20" fill="#F4F7F9"/><text x="1358" y="135" font-family="Arial, sans-serif" font-size="11" fill="#3D4D5C" font-weight="700" text-anchor="start">09:41</text><text x="1674" y="135" font-family="Arial, sans-serif" font-size="10" fill="#3D4D5C" font-weight="700" text-anchor="end">● 5G</text><rect x="1340" y="152" width="370" height="64" rx="0" fill="#10243B"/><text x="1358" y="179" font-family="Arial, sans-serif" font-size="14" fill="#FFFFFF" font-weight="700" text-anchor="start">PHARMASSIST</text><rect x="1570" y="166" width="120" height="28" rx="5" fill="#D98A00"/><text x="1630" y="185" font-family="Arial, sans-serif" font-size="11" fill="#FFFFFF" font-weight="700" text-anchor="middle">CHUYÊN GIA</text><rect x="1340" y="866" width="370" height="68" rx="0" fill="#FFFFFF"/><line x1="1340" y1="866" x2="1710" y2="866" stroke="#D8E1E8" stroke-width="1"/><rect x="1360" y="880" width="32" height="28" rx="6" fill="#D98A00"/><text x="1376" y="900" font-family="Arial, sans-serif" font-size="11" fill="#FFFFFF" font-weight="700" text-anchor="middle">1</text><text x="1376" y="922" font-family="Arial, sans-serif" font-size="10" fill="#132238" font-weight="700" text-anchor="middle">Chờ duyệt</text><rect x="1510" y="880" width="32" height="28" rx="6" fill="#EAF0F4"/><text x="1526" y="900" font-family="Arial, sans-serif" font-size="11" fill="#71808E" font-weight="700" text-anchor="middle">2</text><text x="1526" y="922" font-family="Arial, sans-serif" font-size="10" fill="#71808E" font-weight="500" text-anchor="middle">Bằng chứng</text><rect x="1660" y="880" width="32" height="28" rx="6" fill="#EAF0F4"/><text x="1676" y="900" font-family="Arial, sans-serif" font-size="11" fill="#71808E" font-weight="700" text-anchor="middle">3</text><text x="1676" y="922" font-family="Arial, sans-serif" font-size="10" fill="#71808E" font-weight="500" text-anchor="middle">Đã xử lý</text><text x="1358" y="236" font-family="Arial, sans-serif" font-size="22" fill="#10243B" font-weight="700" text-anchor="start">Chờ đánh giá</text><rect x="1600" y="228" width="92" height="28" rx="5" fill="#FFF0D2"/><text x="1646" y="247" font-family="Arial, sans-serif" font-size="11" fill="#805400" font-weight="700" text-anchor="middle">12 MỤC</text><text x="1358" y="270" font-family="Arial, sans-serif" font-size="12" fill="#C74848" font-weight="700" text-anchor="start">3 mục ưu tiên cao</text><rect x="1358" y="298" width="334" height="128" rx="8" fill="#FFFFFF" stroke="#D98A00" stroke-width="1"/><text x="1372" y="324" font-family="Arial, sans-serif" font-size="14" fill="#132238" font-weight="700" text-anchor="start">Panadol → Paracetamol DHG</text><text x="1372" y="347" font-family="Arial, sans-serif" font-size="11" fill="#71808E" font-weight="400" text-anchor="start">Điểm phù hợp 94 / 100</text><text x="1372" y="362" font-family="Arial, sans-serif" font-size="11" fill="#3D4D5C" font-weight="400" text-anchor="start">Cùng hoạt chất · cùng hàm lượng</text><rect x="1578" y="314" width="94" height="28" rx="5" fill="#FFF0D2"/><text x="1625" y="333" font-family="Arial, sans-serif" font-size="11" fill="#805400" font-weight="700" text-anchor="middle">ƯU TIÊN</text><rect x="1358" y="442" width="334" height="118" rx="8" fill="#EDF4FF" stroke="#2675D8" stroke-width="1"/><text x="1372" y="470" font-family="Arial, sans-serif" font-size="13" fill="#255FAD" font-weight="700" text-anchor="start">Bằng chứng deterministic</text><text x="1372" y="496" font-family="Arial, sans-serif" font-size="11" fill="#3D4D5C" font-weight="400" text-anchor="start">Hoạt chất 40/40</text><text x="1372" y="516" font-family="Arial, sans-serif" font-size="11" fill="#3D4D5C" font-weight="400" text-anchor="start">Hàm lượng 25/25</text><text x="1372" y="536" font-family="Arial, sans-serif" font-size="11" fill="#3D4D5C" font-weight="400" text-anchor="start">Dạng bào chế 15/15</text><text x="1358" y="590" font-family="Arial, sans-serif" font-size="13" fill="#132238" font-weight="700" text-anchor="start">Nhận xét chuyên môn</text><rect x="1358" y="606" width="334" height="76" rx="6" fill="#FFFFFF" stroke="#8FA0AE" stroke-width="1"/><text x="1372" y="634" font-family="Arial, sans-serif" font-size="11" fill="#8795A1" font-weight="400" text-anchor="start">Nhập nhận xét…</text><rect x="1358" y="704" width="100" height="44" rx="6" fill="#2D8A57"/><text x="1408" y="732" font-family="Arial, sans-serif" font-size="11" fill="#FFFFFF" font-weight="700" text-anchor="middle">Chấp nhận</text><rect x="1470" y="704" width="124" height="44" rx="6" fill="#FFF0D2"/><text x="1532" y="732" font-family="Arial, sans-serif" font-size="11" fill="#805400" font-weight="700" text-anchor="middle">Xem xét thêm</text><rect x="1606" y="704" width="86" height="44" rx="6" fill="#FFE3E3"/><text x="1649" y="732" font-family="Arial, sans-serif" font-size="11" fill="#A42D2D" font-weight="700" text-anchor="middle">Từ chối</text><text x="1760" y="84" font-family="Arial, sans-serif" font-size="16" fill="#10243B" font-weight="700" text-anchor="start">M05 · Admin operations</text><rect x="1760" y="100" width="390" height="844" rx="28" fill="#FFFFFF" stroke="#AAB8C4" stroke-width="3"/><rect x="1770" y="110" width="370" height="824" rx="20" fill="#F4F7F9"/><text x="1788" y="135" font-family="Arial, sans-serif" font-size="11" fill="#3D4D5C" font-weight="700" text-anchor="start">09:41</text><text x="2104" y="135" font-family="Arial, sans-serif" font-size="10" fill="#3D4D5C" font-weight="700" text-anchor="end">● 5G</text><rect x="1770" y="152" width="370" height="64" rx="0" fill="#10243B"/><text x="1788" y="179" font-family="Arial, sans-serif" font-size="14" fill="#FFFFFF" font-weight="700" text-anchor="start">PHARMASSIST</text><rect x="2000" y="166" width="120" height="28" rx="5" fill="#C74848"/><text x="2060" y="185" font-family="Arial, sans-serif" font-size="11" fill="#FFFFFF" font-weight="700" text-anchor="middle">ADMIN</text><rect x="1770" y="866" width="370" height="68" rx="0" fill="#FFFFFF"/><line x1="1770" y1="866" x2="2140" y2="866" stroke="#D8E1E8" stroke-width="1"/><rect x="1790" y="880" width="32" height="28" rx="6" fill="#C74848"/><text x="1806" y="900" font-family="Arial, sans-serif" font-size="11" fill="#FFFFFF" font-weight="700" text-anchor="middle">1</text><text x="1806" y="922" font-family="Arial, sans-serif" font-size="10" fill="#132238" font-weight="700" text-anchor="middle">Tổng quan</text><rect x="1940" y="880" width="32" height="28" rx="6" fill="#EAF0F4"/><text x="1956" y="900" font-family="Arial, sans-serif" font-size="11" fill="#71808E" font-weight="700" text-anchor="middle">2</text><text x="1956" y="922" font-family="Arial, sans-serif" font-size="10" fill="#71808E" font-weight="500" text-anchor="middle">Danh mục</text><rect x="2090" y="880" width="32" height="28" rx="6" fill="#EAF0F4"/><text x="2106" y="900" font-family="Arial, sans-serif" font-size="11" fill="#71808E" font-weight="700" text-anchor="middle">3</text><text x="2106" y="922" font-family="Arial, sans-serif" font-size="10" fill="#71808E" font-weight="500" text-anchor="middle">Tài khoản</text><text x="1788" y="236" font-family="Arial, sans-serif" font-size="21" fill="#10243B" font-weight="700" text-anchor="start">Vận hành hệ thống</text><text x="1788" y="264" font-family="Arial, sans-serif" font-size="12" fill="#71808E" font-weight="400" text-anchor="start">Trạng thái và việc cần xử lý</text><rect x="1788" y="294" width="156" height="92" rx="8" fill="#FFFFFF" stroke="#2675D8" stroke-width="1"/><text x="1802" y="320" font-family="Arial, sans-serif" font-size="14" fill="#132238" font-weight="700" text-anchor="start">1.248</text><text x="1802" y="343" font-family="Arial, sans-serif" font-size="11" fill="#71808E" font-weight="400" text-anchor="start">Thuốc quản lý</text><rect x="1966" y="294" width="156" height="92" rx="8" fill="#FFFFFF" stroke="#D98A00" stroke-width="1"/><text x="1980" y="320" font-family="Arial, sans-serif" font-size="14" fill="#132238" font-weight="700" text-anchor="start">16 lô</text><text x="1980" y="343" font-family="Arial, sans-serif" font-size="11" fill="#71808E" font-weight="400" text-anchor="start">Sắp hết hạn</text><rect x="1788" y="400" width="156" height="92" rx="8" fill="#FFFFFF" stroke="#7B61A8" stroke-width="1"/><text x="1802" y="426" font-family="Arial, sans-serif" font-size="14" fill="#132238" font-weight="700" text-anchor="start">42</text><text x="1802" y="449" font-family="Arial, sans-serif" font-size="11" fill="#71808E" font-weight="400" text-anchor="start">Tài khoản</text><rect x="1966" y="400" width="156" height="92" rx="8" fill="#FFFFFF" stroke="#2D8A57" stroke-width="1"/><text x="1980" y="426" font-family="Arial, sans-serif" font-size="14" fill="#132238" font-weight="700" text-anchor="start">Ổn định</text><text x="1980" y="449" font-family="Arial, sans-serif" font-size="11" fill="#71808E" font-weight="400" text-anchor="start">Hệ thống</text><text x="1788" y="534" font-family="Arial, sans-serif" font-size="15" fill="#132238" font-weight="700" text-anchor="start">Việc cần xử lý</text><rect x="1788" y="552" width="334" height="76" rx="8" fill="#FFFFFF" stroke="#D98A00" stroke-width="1"/><text x="1802" y="578" font-family="Arial, sans-serif" font-size="14" fill="#132238" font-weight="700" text-anchor="start">Kho &amp; lô thuốc</text><text x="1802" y="601" font-family="Arial, sans-serif" font-size="11" fill="#71808E" font-weight="400" text-anchor="start">16 lô trong 90 ngày</text><rect x="1788" y="640" width="334" height="76" rx="8" fill="#FFFFFF" stroke="#7B61A8" stroke-width="1"/><text x="1802" y="666" font-family="Arial, sans-serif" font-size="14" fill="#132238" font-weight="700" text-anchor="start">Người dùng &amp; vai trò</text><text x="1802" y="689" font-family="Arial, sans-serif" font-size="11" fill="#71808E" font-weight="400" text-anchor="start">2 yêu cầu đang chờ</text><rect x="1788" y="728" width="334" height="76" rx="8" fill="#FFFFFF" stroke="#2D8A57" stroke-width="1"/><text x="1802" y="754" font-family="Arial, sans-serif" font-size="14" fill="#132238" font-weight="700" text-anchor="start">Sao lưu SQL</text><text x="1802" y="777" font-family="Arial, sans-serif" font-size="11" fill="#71808E" font-weight="400" text-anchor="start">Đã xác minh 22/06</text><text x="2190" y="84" font-family="Arial, sans-serif" font-size="16" fill="#10243B" font-weight="700" text-anchor="start">M06 · Secure auth</text><rect x="2190" y="100" width="390" height="844" rx="28" fill="#FFFFFF" stroke="#AAB8C4" stroke-width="3"/><rect x="2200" y="110" width="370" height="824" rx="20" fill="#F4F7F9"/><text x="2218" y="135" font-family="Arial, sans-serif" font-size="11" fill="#3D4D5C" font-weight="700" text-anchor="start">09:41</text><text x="2534" y="135" font-family="Arial, sans-serif" font-size="10" fill="#3D4D5C" font-weight="700" text-anchor="end">● 5G</text><rect x="2200" y="152" width="370" height="64" rx="0" fill="#10243B"/><text x="2218" y="179" font-family="Arial, sans-serif" font-size="14" fill="#FFFFFF" font-weight="700" text-anchor="start">PHARMASSIST</text><rect x="2430" y="166" width="120" height="28" rx="5" fill="#0F9D8A"/><text x="2490" y="185" font-family="Arial, sans-serif" font-size="11" fill="#FFFFFF" font-weight="700" text-anchor="middle">ĐĂNG NHẬP</text><rect x="2200" y="866" width="370" height="68" rx="0" fill="#FFFFFF"/><line x1="2200" y1="866" x2="2570" y2="866" stroke="#D8E1E8" stroke-width="1"/><rect x="2220" y="880" width="32" height="28" rx="6" fill="#EAF0F4"/><text x="2236" y="900" font-family="Arial, sans-serif" font-size="11" fill="#71808E" font-weight="700" text-anchor="middle">1</text><text x="2236" y="922" font-family="Arial, sans-serif" font-size="10" fill="#71808E" font-weight="500" text-anchor="middle">Trợ giúp</text><rect x="2370" y="880" width="32" height="28" rx="6" fill="#EAF0F4"/><text x="2386" y="900" font-family="Arial, sans-serif" font-size="11" fill="#71808E" font-weight="700" text-anchor="middle">2</text><text x="2386" y="922" font-family="Arial, sans-serif" font-size="10" fill="#71808E" font-weight="500" text-anchor="middle">Bảo mật</text><rect x="2520" y="880" width="32" height="28" rx="6" fill="#0F9D8A"/><text x="2536" y="900" font-family="Arial, sans-serif" font-size="11" fill="#FFFFFF" font-weight="700" text-anchor="middle">3</text><text x="2536" y="922" font-family="Arial, sans-serif" font-size="10" fill="#132238" font-weight="700" text-anchor="middle">Đăng nhập</text><text x="2218" y="236" font-family="Arial, sans-serif" font-size="22" fill="#10243B" font-weight="700" text-anchor="start">Đăng nhập hệ thống</text><text x="2218" y="264" font-family="Arial, sans-serif" font-size="12" fill="#71808E" font-weight="400" text-anchor="start">Hệ thống tự xác định vai trò</text><text x="2218" y="320" font-family="Arial, sans-serif" font-size="13" fill="#3D4D5C" font-weight="700" text-anchor="start">Email</text><rect x="2218" y="334" width="334" height="48" rx="7" fill="#FFFFFF" stroke="#8FA0AE" stroke-width="1"/><text x="2232" y="364" font-family="Arial, sans-serif" font-size="12" fill="#8795A1" font-weight="400" text-anchor="start">ten@donvi.vn</text><text x="2218" y="418" font-family="Arial, sans-serif" font-size="13" fill="#3D4D5C" font-weight="700" text-anchor="start">Mật khẩu</text><rect x="2218" y="432" width="334" height="48" rx="7" fill="#FFFFFF" stroke="#8FA0AE" stroke-width="1"/><text x="2232" y="462" font-family="Arial, sans-serif" font-size="14" fill="#8795A1" font-weight="400" text-anchor="start">••••••••</text><text x="2552" y="510" font-family="Arial, sans-serif" font-size="12" fill="#2675D8" font-weight="700" text-anchor="end">Quên mật khẩu?</text><rect x="2218" y="542" width="334" height="48" rx="7" fill="#0F9D8A"/><text x="2385" y="573" font-family="Arial, sans-serif" font-size="13" fill="#FFFFFF" font-weight="700" text-anchor="middle">Đăng nhập</text><rect x="2218" y="626" width="334" height="120" rx="8" fill="#EDF4FF" stroke="#2675D8" stroke-width="1"/><text x="2232" y="656" font-family="Arial, sans-serif" font-size="13" fill="#255FAD" font-weight="700" text-anchor="start">Sau khi xác thực</text><text x="2232" y="684" font-family="Arial, sans-serif" font-size="11" fill="#3D4D5C" font-weight="400" text-anchor="start">Redirect tới Area đúng vai trò.</text><text x="2232" y="708" font-family="Arial, sans-serif" font-size="11" fill="#3D4D5C" font-weight="400" text-anchor="start">Không chọn role thủ công.</text><text x="2232" y="732" font-family="Arial, sans-serif" font-size="11" fill="#3D4D5C" font-weight="400" text-anchor="start">Không hiển thị tài khoản mẫu.</text><rect x="40" y="1020" width="2920" height="1110" rx="8" fill="#FFFFFF" stroke="#C8D3DC" stroke-width="1"/><text x="84" y="1074" font-family="Arial, sans-serif" font-size="24" fill="#10243B" font-weight="700" text-anchor="start">04 · STATE MATRIX &amp; RESPONSIVE CONTRACT</text><line x1="84" y1="1100" x2="2916" y2="1100" stroke="#D8E1E8" stroke-width="1"/><text x="84" y="1142" font-family="Arial, sans-serif" font-size="17" fill="#132238" font-weight="700" text-anchor="start">Trạng thái bắt buộc</text><rect x="84" y="1166" width="410" height="134" rx="8" fill="#EDF4FF" stroke="#2675D8" stroke-width="1"/><rect x="84" y="1166" width="6" height="134" rx="6" fill="#2675D8"/><text x="106" y="1202" font-family="Arial, sans-serif" font-size="15" fill="#132238" font-weight="700" text-anchor="start">Đang tải</text><text x="106" y="1234" font-family="Arial, sans-serif" font-size="12" fill="#4A5B6B" font-weight="400" text-anchor="start">Skeleton giữ kích thước</text><text x="106" y="1260" font-family="Arial, sans-serif" font-size="12" fill="#2675D8" font-weight="700" text-anchor="start">aria-busy=true</text><rect x="534" y="1166" width="410" height="134" rx="8" fill="#F4F7F9" stroke="#5E6C7B" stroke-width="1"/><rect x="534" y="1166" width="6" height="134" rx="6" fill="#5E6C7B"/><text x="556" y="1202" font-family="Arial, sans-serif" font-size="15" fill="#132238" font-weight="700" text-anchor="start">Không có kết quả</text><text x="556" y="1234" font-family="Arial, sans-serif" font-size="12" fill="#4A5B6B" font-weight="400" text-anchor="start">Nêu bộ lọc đã dùng</text><text x="556" y="1260" font-family="Arial, sans-serif" font-size="12" fill="#5E6C7B" font-weight="700" text-anchor="start">Cho phép xóa lọc</text><rect x="984" y="1166" width="410" height="134" rx="8" fill="#FFF1F1" stroke="#C74848" stroke-width="1"/><rect x="984" y="1166" width="6" height="134" rx="6" fill="#C74848"/><text x="1006" y="1202" font-family="Arial, sans-serif" font-size="15" fill="#132238" font-weight="700" text-anchor="start">Lỗi dịch vụ</text><text x="1006" y="1234" font-family="Arial, sans-serif" font-size="12" fill="#4A5B6B" font-weight="400" text-anchor="start">Không mất dữ liệu nhập</text><text x="1006" y="1260" font-family="Arial, sans-serif" font-size="12" fill="#C74848" font-weight="700" text-anchor="start">Thử lại có kiểm soát</text><rect x="1434" y="1166" width="410" height="134" rx="8" fill="#FFF7E8" stroke="#D98A00" stroke-width="1"/><rect x="1434" y="1166" width="6" height="134" rx="6" fill="#D98A00"/><text x="1456" y="1202" font-family="Arial, sans-serif" font-size="15" fill="#132238" font-weight="700" text-anchor="start">Mất kết nối</text><text x="1456" y="1234" font-family="Arial, sans-serif" font-size="12" fill="#4A5B6B" font-weight="400" text-anchor="start">Hiển thị dữ liệu cũ có nhãn</text><text x="1456" y="1260" font-family="Arial, sans-serif" font-size="12" fill="#D98A00" font-weight="700" text-anchor="start">Không gửi quyết định</text><rect x="1884" y="1166" width="410" height="134" rx="8" fill="#FFF7E8" stroke="#D98A00" stroke-width="1"/><rect x="1884" y="1166" width="6" height="134" rx="6" fill="#D98A00"/><text x="1906" y="1202" font-family="Arial, sans-serif" font-size="15" fill="#132238" font-weight="700" text-anchor="start">Giới hạn yêu cầu</text><text x="1906" y="1234" font-family="Arial, sans-serif" font-size="12" fill="#4A5B6B" font-weight="400" text-anchor="start">Thông báo thời gian thử lại</text><text x="1906" y="1260" font-family="Arial, sans-serif" font-size="12" fill="#D98A00" font-weight="700" text-anchor="start">Không lặp tự động</text><rect x="2334" y="1166" width="410" height="134" rx="8" fill="#F3EFF8" stroke="#7B61A8" stroke-width="1"/><rect x="2334" y="1166" width="6" height="134" rx="6" fill="#7B61A8"/><text x="2356" y="1202" font-family="Arial, sans-serif" font-size="15" fill="#132238" font-weight="700" text-anchor="start">Phiên hết hạn</text><text x="2356" y="1234" font-family="Arial, sans-serif" font-size="12" fill="#4A5B6B" font-weight="400" text-anchor="start">Đăng nhập lại an toàn</text><text x="2356" y="1260" font-family="Arial, sans-serif" font-size="12" fill="#7B61A8" font-weight="700" text-anchor="start">Giữ return URL hợp lệ</text><text x="84" y="1354" font-family="Arial, sans-serif" font-size="17" fill="#132238" font-weight="700" text-anchor="start">Route / role matrix</text><rect x="84" y="1378" width="400" height="42" rx="0" fill="#10243B"/><text x="96" y="1405" font-family="Arial, sans-serif" font-size="12" fill="#FFFFFF" font-weight="700" text-anchor="start">Route</text><rect x="484" y="1378" width="350" height="42" rx="0" fill="#10243B"/><text x="496" y="1405" font-family="Arial, sans-serif" font-size="12" fill="#FFFFFF" font-weight="700" text-anchor="start">Public</text><rect x="834" y="1378" width="350" height="42" rx="0" fill="#10243B"/><text x="846" y="1405" font-family="Arial, sans-serif" font-size="12" fill="#FFFFFF" font-weight="700" text-anchor="start">User</text><rect x="1184" y="1378" width="350" height="42" rx="0" fill="#10243B"/><text x="1196" y="1405" font-family="Arial, sans-serif" font-size="12" fill="#FFFFFF" font-weight="700" text-anchor="start">Pharmacist</text><rect x="1534" y="1378" width="350" height="42" rx="0" fill="#10243B"/><text x="1546" y="1405" font-family="Arial, sans-serif" font-size="12" fill="#FFFFFF" font-weight="700" text-anchor="start">Expert</text><rect x="1884" y="1378" width="350" height="42" rx="0" fill="#10243B"/><text x="1896" y="1405" font-family="Arial, sans-serif" font-size="12" fill="#FFFFFF" font-weight="700" text-anchor="start">Admin</text><rect x="84" y="1420" width="400" height="44" rx="0" fill="#FAFCFD"/><text x="96" y="1448" font-family="Arial, sans-serif" font-size="13" fill="#132238" font-weight="700" text-anchor="start">/Drugs</text><rect x="484" y="1420" width="350" height="44" rx="0" fill="#FAFCFD"/><text x="496" y="1448" font-family="Arial, sans-serif" font-size="13" fill="#216D45" font-weight="700" text-anchor="start">✓</text><rect x="834" y="1420" width="350" height="44" rx="0" fill="#FAFCFD"/><text x="846" y="1448" font-family="Arial, sans-serif" font-size="13" fill="#216D45" font-weight="700" text-anchor="start">✓</text><rect x="1184" y="1420" width="350" height="44" rx="0" fill="#FAFCFD"/><text x="1196" y="1448" font-family="Arial, sans-serif" font-size="13" fill="#216D45" font-weight="700" text-anchor="start">✓</text><rect x="1534" y="1420" width="350" height="44" rx="0" fill="#FAFCFD"/><text x="1546" y="1448" font-family="Arial, sans-serif" font-size="13" fill="#216D45" font-weight="700" text-anchor="start">✓</text><rect x="1884" y="1420" width="350" height="44" rx="0" fill="#FAFCFD"/><text x="1896" y="1448" font-family="Arial, sans-serif" font-size="13" fill="#216D45" font-weight="700" text-anchor="start">✓</text><rect x="84" y="1464" width="400" height="44" rx="0" fill="#F4F7F9"/><text x="96" y="1492" font-family="Arial, sans-serif" font-size="13" fill="#132238" font-weight="700" text-anchor="start">/User/*</text><rect x="484" y="1464" width="350" height="44" rx="0" fill="#F4F7F9"/><text x="496" y="1492" font-family="Arial, sans-serif" font-size="13" fill="#A42D2D" font-weight="700" text-anchor="start">—</text><rect x="834" y="1464" width="350" height="44" rx="0" fill="#F4F7F9"/><text x="846" y="1492" font-family="Arial, sans-serif" font-size="13" fill="#216D45" font-weight="700" text-anchor="start">✓</text><rect x="1184" y="1464" width="350" height="44" rx="0" fill="#F4F7F9"/><text x="1196" y="1492" font-family="Arial, sans-serif" font-size="13" fill="#A42D2D" font-weight="700" text-anchor="start">—</text><rect x="1534" y="1464" width="350" height="44" rx="0" fill="#F4F7F9"/><text x="1546" y="1492" font-family="Arial, sans-serif" font-size="13" fill="#A42D2D" font-weight="700" text-anchor="start">—</text><rect x="1884" y="1464" width="350" height="44" rx="0" fill="#F4F7F9"/><text x="1896" y="1492" font-family="Arial, sans-serif" font-size="13" fill="#A42D2D" font-weight="700" text-anchor="start">—</text><rect x="84" y="1508" width="400" height="44" rx="0" fill="#FAFCFD"/><text x="96" y="1536" font-family="Arial, sans-serif" font-size="13" fill="#132238" font-weight="700" text-anchor="start">/Pharmacist/*</text><rect x="484" y="1508" width="350" height="44" rx="0" fill="#FAFCFD"/><text x="496" y="1536" font-family="Arial, sans-serif" font-size="13" fill="#A42D2D" font-weight="700" text-anchor="start">—</text><rect x="834" y="1508" width="350" height="44" rx="0" fill="#FAFCFD"/><text x="846" y="1536" font-family="Arial, sans-serif" font-size="13" fill="#A42D2D" font-weight="700" text-anchor="start">—</text><rect x="1184" y="1508" width="350" height="44" rx="0" fill="#FAFCFD"/><text x="1196" y="1536" font-family="Arial, sans-serif" font-size="13" fill="#216D45" font-weight="700" text-anchor="start">✓</text><rect x="1534" y="1508" width="350" height="44" rx="0" fill="#FAFCFD"/><text x="1546" y="1536" font-family="Arial, sans-serif" font-size="13" fill="#A42D2D" font-weight="700" text-anchor="start">—</text><rect x="1884" y="1508" width="350" height="44" rx="0" fill="#FAFCFD"/><text x="1896" y="1536" font-family="Arial, sans-serif" font-size="13" fill="#A42D2D" font-weight="700" text-anchor="start">—</text><rect x="84" y="1552" width="400" height="44" rx="0" fill="#F4F7F9"/><text x="96" y="1580" font-family="Arial, sans-serif" font-size="13" fill="#132238" font-weight="700" text-anchor="start">/Expert/*</text><rect x="484" y="1552" width="350" height="44" rx="0" fill="#F4F7F9"/><text x="496" y="1580" font-family="Arial, sans-serif" font-size="13" fill="#A42D2D" font-weight="700" text-anchor="start">—</text><rect x="834" y="1552" width="350" height="44" rx="0" fill="#F4F7F9"/><text x="846" y="1580" font-family="Arial, sans-serif" font-size="13" fill="#A42D2D" font-weight="700" text-anchor="start">—</text><rect x="1184" y="1552" width="350" height="44" rx="0" fill="#F4F7F9"/><text x="1196" y="1580" font-family="Arial, sans-serif" font-size="13" fill="#A42D2D" font-weight="700" text-anchor="start">—</text><rect x="1534" y="1552" width="350" height="44" rx="0" fill="#F4F7F9"/><text x="1546" y="1580" font-family="Arial, sans-serif" font-size="13" fill="#216D45" font-weight="700" text-anchor="start">✓</text><rect x="1884" y="1552" width="350" height="44" rx="0" fill="#F4F7F9"/><text x="1896" y="1580" font-family="Arial, sans-serif" font-size="13" fill="#A42D2D" font-weight="700" text-anchor="start">—</text><rect x="84" y="1596" width="400" height="44" rx="0" fill="#FAFCFD"/><text x="96" y="1624" font-family="Arial, sans-serif" font-size="13" fill="#132238" font-weight="700" text-anchor="start">/Admin/*</text><rect x="484" y="1596" width="350" height="44" rx="0" fill="#FAFCFD"/><text x="496" y="1624" font-family="Arial, sans-serif" font-size="13" fill="#A42D2D" font-weight="700" text-anchor="start">—</text><rect x="834" y="1596" width="350" height="44" rx="0" fill="#FAFCFD"/><text x="846" y="1624" font-family="Arial, sans-serif" font-size="13" fill="#A42D2D" font-weight="700" text-anchor="start">—</text><rect x="1184" y="1596" width="350" height="44" rx="0" fill="#FAFCFD"/><text x="1196" y="1624" font-family="Arial, sans-serif" font-size="13" fill="#A42D2D" font-weight="700" text-anchor="start">—</text><rect x="1534" y="1596" width="350" height="44" rx="0" fill="#FAFCFD"/><text x="1546" y="1624" font-family="Arial, sans-serif" font-size="13" fill="#A42D2D" font-weight="700" text-anchor="start">—</text><rect x="1884" y="1596" width="350" height="44" rx="0" fill="#FAFCFD"/><text x="1896" y="1624" font-family="Arial, sans-serif" font-size="13" fill="#216D45" font-weight="700" text-anchor="start">✓</text><rect x="84" y="1668" width="2600" height="88" rx="8" fill="#DDF6F0" stroke="#0F9D8A" stroke-width="1"/><text x="108" y="1702" font-family="Arial, sans-serif" font-size="15" fill="#087565" font-weight="700" text-anchor="start">Điều hướng sau đăng nhập</text><text x="108" y="1731" font-family="Arial, sans-serif" font-size="13" fill="#3D4D5C" font-weight="400" text-anchor="start">User → /User · Pharmacist → /Pharmacist · Expert → /Expert · Admin → /Admin</text><rect x="2704" y="1668" width="172" height="88" rx="8" fill="#FFF1F1" stroke="#C74848" stroke-width="1"/><text x="2790" y="1705" font-family="Arial, sans-serif" font-size="20" fill="#A42D2D" font-weight="700" text-anchor="middle">403</text><text x="2790" y="1731" font-family="Arial, sans-serif" font-size="11" fill="#A42D2D" font-weight="600" text-anchor="middle">chỉ URL trái quyền</text><text x="84" y="1812" font-family="Arial, sans-serif" font-size="17" fill="#132238" font-weight="700" text-anchor="start">Responsive behavior</text><rect x="84" y="1840" width="2792" height="38" rx="0" fill="#F4F7F9"/><text x="104" y="1865" font-family="Arial, sans-serif" font-size="12" fill="#132238" font-weight="700" text-anchor="start">Navigation</text><text x="410" y="1865" font-family="Arial, sans-serif" font-size="12" fill="#4A5B6B" font-weight="500" text-anchor="start">Desktop sidebar → mobile bottom navigation theo role</text><rect x="84" y="1882" width="2792" height="38" rx="0" fill="#FFFFFF"/><text x="104" y="1907" font-family="Arial, sans-serif" font-size="12" fill="#132238" font-weight="700" text-anchor="start">Tables</text><text x="410" y="1907" font-family="Arial, sans-serif" font-size="12" fill="#4A5B6B" font-weight="500" text-anchor="start">Chuyển thành row list; ưu tiên tên, trạng thái, hành động</text><rect x="84" y="1924" width="2792" height="38" rx="0" fill="#F4F7F9"/><text x="104" y="1949" font-family="Arial, sans-serif" font-size="12" fill="#132238" font-weight="700" text-anchor="start">Warnings</text><text x="410" y="1949" font-family="Arial, sans-serif" font-size="12" fill="#4A5B6B" font-weight="500" text-anchor="start">Đặt trước nội dung dược lý dài; luôn có text + icon</text><rect x="84" y="1966" width="2792" height="38" rx="0" fill="#FFFFFF"/><text x="104" y="1991" font-family="Arial, sans-serif" font-size="12" fill="#132238" font-weight="700" text-anchor="start">Actions</text><text x="410" y="1991" font-family="Arial, sans-serif" font-size="12" fill="#4A5B6B" font-weight="500" text-anchor="start">Sticky action chỉ cho quyết định hiện tại; không che nội dung</text><rect x="84" y="2008" width="2792" height="38" rx="0" fill="#F4F7F9"/><text x="104" y="2033" font-family="Arial, sans-serif" font-size="12" fill="#132238" font-weight="700" text-anchor="start">Typography</text><text x="410" y="2033" font-family="Arial, sans-serif" font-size="12" fill="#4A5B6B" font-weight="500" text-anchor="start">Không scale theo viewport; kiểm tra 200% zoom</text><rect x="84" y="2050" width="2792" height="38" rx="0" fill="#FFFFFF"/><text x="104" y="2075" font-family="Arial, sans-serif" font-size="12" fill="#132238" font-weight="700" text-anchor="start">Credentials</text><text x="410" y="2075" font-family="Arial, sans-serif" font-size="12" fill="#4A5B6B" font-weight="500" text-anchor="start">Không xuất hiện trong UI, HTML, JavaScript hoặc tooltip</text></svg>